<?xml version="1.0" encoding="utf-8"?>
<!-- Generator: Adobe Illustrator 24.2.0, SVG Export Plug-In . SVG Version: 6.00 Build 0)  -->
<svg version="1.1" id="integrity" xmlns="http://www.w3.org/2000/svg" xmlns:xlink="http://www.w3.org/1999/xlink" x="0px" y="0px"
	 viewBox="0 0 792 612" style="enable-background:new 0 0 792 612;" xml:space="preserve">
<style type="text/css">
	.st0{fill:#009CDC;}
	.st1{opacity:0.4;fill:url(#SVGID_1_);}
	.st2{opacity:0.4;fill:url(#SVGID_2_);}
	.st3{opacity:0.4;fill:url(#SVGID_3_);}
	.st4{opacity:0.4;fill:url(#SVGID_4_);}
	.st5{opacity:0.4;fill:url(#SVGID_5_);}
</style>
<g>
	<g>
		<polygon class="st0" points="396.9,445.3 568.5,570 674.5,243.6 		"/>
		
			<linearGradient id="SVGID_1_" gradientUnits="userSpaceOnUse" x1="481.7756" y1="450.6556" x2="695.8044" y2="195.5859" gradientTransform="matrix(1 0 0 1 -3.8698 62.6675)">
			<stop  offset="0" style="stop-color:#231F20"/>
			<stop  offset="0.5" style="stop-color:#F1F1F2"/>
		</linearGradient>
		<polygon class="st1" points="396.9,445.3 568.5,570 674.5,243.6 		"/>
	</g>
	<g>
		<polygon class="st0" points="290.8,368.3 225.3,570 568.5,570 		"/>
		
			<linearGradient id="SVGID_2_" gradientUnits="userSpaceOnUse" x1="258.4554" y1="405.2037" x2="568.4277" y2="518.0244" gradientTransform="matrix(1 0 0 1 -3.8698 62.6675)">
			<stop  offset="0" style="stop-color:#231F20"/>
			<stop  offset="0.5" style="stop-color:#F1F1F2"/>
		</linearGradient>
		<polygon class="st2" points="290.8,368.3 225.3,570 568.5,570 		"/>
	</g>
	<g>
		<polygon class="st0" points="119.2,243.6 225.3,570 331.3,243.6 		"/>
		
			<linearGradient id="SVGID_3_" gradientUnits="userSpaceOnUse" x1="229.1598" y1="180.9493" x2="229.1598" y2="507.3228" gradientTransform="matrix(1 0 0 1 -3.8698 62.6675)">
			<stop  offset="0" style="stop-color:#231F20"/>
			<stop  offset="0.5" style="stop-color:#F1F1F2"/>
		</linearGradient>
		<polygon class="st3" points="119.2,243.6 225.3,570 331.3,243.6 		"/>
	</g>
	<g>
		<polygon class="st0" points="396.9,41.9 119.2,243.6 462.4,243.6 		"/>
		
			<linearGradient id="SVGID_4_" gradientUnits="userSpaceOnUse" x1="433.5046" y1="80.0944" x2="123.1105" y2="180.9476" gradientTransform="matrix(1 0 0 1 -3.8698 62.6675)">
			<stop  offset="0" style="stop-color:#231F20"/>
			<stop  offset="0.5" style="stop-color:#F1F1F2"/>
		</linearGradient>
		<polygon class="st4" points="396.9,41.9 119.2,243.6 462.4,243.6 		"/>
	</g>
	<g>
		<polygon class="st0" points="674.5,243.6 396.9,41.9 502.9,368.3 		"/>
		
			<linearGradient id="SVGID_5_" gradientUnits="userSpaceOnUse" x1="592.5711" y1="243.2804" x2="400.7341" y2="-20.7606" gradientTransform="matrix(1 0 0 1 -3.8698 62.6675)">
			<stop  offset="0" style="stop-color:#231F20"/>
			<stop  offset="0.5" style="stop-color:#F1F1F2"/>
		</linearGradient>
		<polygon class="st5" points="674.5,243.6 396.9,41.9 502.9,368.3 		"/>
	</g>
</g>
</svg>
